<svg width="32" height="32" viewBox="0 0 32 32" fill="none" xmlns="http://www.w3.org/2000/svg">
<path fill-rule="evenodd" clip-rule="evenodd" d="M15.71 4.02911C9.76 4.43911 5.01 9.37911 4.82 15.3391C4.74 17.7491 5.39 20.0791 6.69 22.0791L3.75 27.9991C3.84 27.9991 11.02 26.0591 11.02 26.0591C12.71 26.9691 14.61 27.4391 16.54 27.4391C23 27.4391 28.26 22.1791 28.26 15.7191C28.26 9.25911 22.55 3.55911 15.71 4.02911ZM16.53 25.3991C14.82 25.3991 13.13 24.9391 11.66 24.0791C11.5 23.9891 11.29 23.8391 11.29 23.8391C11.29 23.8391 10.96 23.9491 10.87 23.9691L7.66 24.8491L9.03 21.8291C7.48 19.9191 6.72 17.5591 6.87 15.0991C7.16 10.2991 11.04 6.38911 15.84 6.05911C21.48 5.66911 26.2 10.1491 26.2 15.7091C26.2 21.2691 21.86 25.3891 16.52 25.3891L16.53 25.3991Z" fill="#F5F5F5"/>
<path fill-rule="evenodd" clip-rule="evenodd" d="M21.0398 17.4794C20.5498 17.1894 19.9098 16.8594 19.3298 17.0994C18.8898 17.2794 18.5998 17.9794 18.3198 18.3294C18.1698 18.5094 17.9998 18.5394 17.7698 18.4494C16.0998 17.7894 14.8298 16.6694 13.9098 15.1394C13.7498 14.8994 13.7798 14.7094 13.9698 14.4894C14.2498 14.1594 14.5998 13.7894 14.6698 13.3494C14.7498 12.9094 14.5398 12.3894 14.3598 11.9994C14.1298 11.4994 13.8698 10.7794 13.3698 10.4994C12.9098 10.2394 12.2998 10.3894 11.8898 10.7194C11.1798 11.2994 10.8398 12.1994 10.8498 13.0994C10.8498 13.3594 10.8798 13.6094 10.9398 13.8594C11.4398 15.9094 12.8498 17.6394 14.4998 18.8894C15.9198 19.9694 18.2698 21.4294 20.1398 21.0794C21.0498 20.9094 21.9398 20.3494 22.2998 19.4694C22.4098 19.2094 22.4598 18.9194 22.3998 18.6494C22.2798 18.0894 21.5098 17.7494 21.0498 17.4794H21.0398Z" fill="#F5F5F5"/>
</svg>
